<?xml version="1.0" encoding="utf-8"?>
<!-- Generator: Adobe Illustrator 28.0.0, SVG Export Plug-In . SVG Version: 6.00 Build 0)  -->
<svg version="1.1" id="Camada_1" xmlns="http://www.w3.org/2000/svg" xmlns:xlink="http://www.w3.org/1999/xlink" x="0px" y="0px"
	 viewBox="0 0 791 172" style="enable-background:new 0 0 791 172;" xml:space="preserve">
<style type="text/css">
	.st0{fill:#1d2a10;}
	.st1{fill:#C15C17;}
</style>
<g>
	<g>
		<path class="st0" d="M212.76,102.58V58.25c-0.02-0.07-0.05-0.13-0.05-0.21v-7.77c-1.65-1.22-3.56-2.16-5.62-2.39
			c0.12,0.58,0.18,1.17,0.18,1.76v54.67c0,3.46-2,10.15-10.36,10.15v4.15h26.2v-4.15C214.76,114.46,212.76,108,212.76,102.58z"/>
		<path class="st0" d="M298.48,62.46c14.71,0,24.03,15.16,24.03,28.52c0,13.36-9.32,28.41-24.03,28.41
			c-14.71,0-24.03-15.05-24.03-28.41C274.45,77.62,283.77,62.46,298.48,62.46z M284.78,90.98c0,13.36,3.48,24.37,13.7,24.37
			c10.22,0,13.7-11,13.7-24.37c0-13.36-3.48-24.48-13.7-24.48C288.26,66.5,284.78,77.62,284.78,90.98z"/>
		<path class="st0" d="M336.55,76.38c0-5.95-1.8-6.96-5.95-6.96V66.5l10.67-4.04c1.57,2.81,3.03,6.18,4.04,9.1
			c4.6-3.82,7.52-9.1,17.41-9.1c6.85,0,11.23,4.15,13.92,9.21c5.39-4.6,10.33-9.21,17.97-9.21c10.56,0,16.84,7.52,16.84,20.21v30.88
			l5.61,0.79v3.37h-20.32v-3.37l5.61-0.79V81.77c0-9.77-5.95-12.8-11.45-12.8c-4.83,0-8.76,3.03-12.35,6.4v38.18l5.61,0.79v3.37
			h-20.32v-3.37l5.61-0.79v-33.8c0-5.17-4.27-10.78-10.56-10.78c-4.94,0-9.88,4.49-13.25,7.3v37.28l5.61,0.79v3.37h-20.32v-3.37
			l5.61-0.79V76.38z"/>
		<path class="st0" d="M461.2,109.73c0,2.58,1.35,3.14,2.69,3.14c1.68,0,2.92-1.24,3.59-2.02l2.36,2.25
			c-2.58,3.59-5.84,6.29-10.56,6.29c-3.93,0-6.51-3.48-6.85-7.41c-3.82,4.15-10.11,7.41-15.72,7.41c-7.64,0-14.15-5.5-14.15-13.36
			c0-14.26,17.85-21.22,29.64-23.92c0-12.24-7.41-15.61-11-15.61c-4.16,0-2.25,7.52-9.77,7.52c-2.81,0-4.83-2.02-4.83-5.17
			c0-4.83,2.69-6.4,10.11-6.4c6.85,0,24.48,3.71,24.48,19.43V109.73z M452.1,86.26c-7.52,1.35-19.76,6.18-19.76,17.29
			c0,5.61,3.48,9.32,9.1,9.32c4.49,0,8.09-2.69,10.67-5.95V86.26z"/>
		<path class="st0" d="M517.23,105.24c0,4.27,0.56,6.85,5.73,6.85v3.37l-10.78,3.93l-3.14-8.09c-4.27,4.15-8.76,8.09-15.72,8.09
			c-11.23,0-18.98-13.47-18.98-26.73c0-17.29,10.11-30.21,21.78-30.21c5.28,0,8.2,1.12,12.13,3.59V44.6c0-2.02-0.56-2.92-1.8-2.92
			c-1.8,0-3.26,0.11-4.38,0.45v-3.37l15.38-5.05c-0.11,2.36-0.22,4.38-0.22,6.85V105.24z M508.13,75.03c0-4.49-5.73-9.21-10.89-9.21
			c-11.12,0-13.81,13.03-13.81,20.66c0,12.58,4.83,24.48,14.6,24.48c3.37,0,8.31-2.02,10.11-4.72V75.03z"/>
		<path class="st0" d="M548,79.86c1.91,0.34,3.82,0.56,6.06,0.56h6.29l0.32,0.68c3.68,0.11,7.44,0.08,11.13-0.39l-0.89-1.86
			c9.43-2.81,16.17-7.41,16.17-19.31c0-7.52-3.93-20.44-28.52-20.44h-28.07v4.04l6.74,0.79v68.95l-6.74,0.79v4.04h24.26v-4.04
			l-6.74-0.79V79.86z M548.22,43.7c2.25-0.45,4.94-0.56,9.54-0.56c11.68,0,18.53,5.05,18.53,17.52c0,12.58-12.91,15.72-20.1,15.72
			c-3.03,0-5.73-0.11-7.97-0.56V43.7z"/>
		<path class="st0" d="M621.2,62.46c14.71,0,24.03,15.16,24.03,28.52c0,13.36-9.32,28.41-24.03,28.41
			c-14.71,0-24.03-15.05-24.03-28.41C597.17,77.62,606.49,62.46,621.2,62.46z M607.5,90.98c0,13.36,3.48,24.37,13.7,24.37
			c10.22,0,13.7-11,13.7-24.37c0-13.36-3.48-24.48-13.7-24.48C610.98,66.5,607.5,77.62,607.5,90.98z"/>
		<path class="st0" d="M677.34,62.46c14.71,0,24.03,15.16,24.03,28.52c0,13.36-9.32,28.41-24.03,28.41
			c-14.71,0-24.03-15.05-24.03-28.41C653.31,77.62,662.63,62.46,677.34,62.46z M663.64,90.98c0,13.36,3.48,24.37,13.7,24.37
			c10.22,0,13.7-11,13.7-24.37c0-13.36-3.48-24.48-13.7-24.48C667.12,66.5,663.64,77.62,663.64,90.98z"/>
		<path class="st0" d="M738.99,64.14v4.94h-14.71v35.15c0,6.29,2.02,8.65,7.64,8.65c2.69,0,5.84-2.02,8.76-4.27l1.68,3.48
			c-4.94,4.49-9.1,7.3-15.95,7.3c-7.3,0-11.23-5.5-11.23-16.06V69.08h-6.96v-4.94h7.19V49.43l9.1-7.41v22.12H738.99z"/>
		<path class="st0" d="M762.57,119.39c-8.76,0-16.96-4.15-16.96-9.77c0-3.82,2.13-5.84,5.28-5.84c8.53,0,3.59,11.57,11.9,11.57
			c6.06,0,11.68-3.03,11.68-8.87c0-14.04-25.83-11.57-25.83-28.52c0-9.43,7.41-15.5,20.21-15.5c6.51,0,9.77,2.69,9.77,6.29
			c0,3.82-2.13,5.28-5.5,5.28c-5.39,0-5.17-7.52-9.21-7.52c-4.6,0-7.75,3.14-7.75,7.64c0,12.58,25.83,8.31,25.83,28.75
			C782,111.53,774.7,119.39,762.57,119.39z"/>
		<path class="st0" d="M254.19,104.79c0.85-2.11,1.74-4.23,2.83-6.23c0.41-0.76,0.86-1.49,1.26-2.26c0.05-0.1,0.39-0.87,0.44-0.93
			c0.15-0.42,0.26-0.84,0.35-1.28c0.02-0.12,0.07-0.22,0.11-0.33V55.72c0-6.29,0.67-12.02,8.42-12.58V39.1h-21.78v4.04
			c7.75,0.56,8.42,4.27,8.42,11.34v40.74c-1.97-4.37-3.95-8.74-6-13.08c-3.39-7.18-7.23-14.12-12.08-20.45
			c-4.86-6.34-10.35-12-17.17-16.29c-6.01-3.78-12.53-5.96-19.58-6.31c-4.43-0.22-8.88-0.15-13.33-0.11v4.8
			c4.14,0.08,8.29,0.05,12.42,0.32c5.58,0.36,8.84,4.75,8.79,9.49c-0.02,2.09-0.02,4.17-0.03,6.26h5.47c0-2.58,0-5.16,0-7.74
			c0-0.76,0.06-1.52,0.11-2.46c1.58,0.7,2.32,1.83,3.2,2.79c4.67,5.1,8.22,10.98,11.45,17.04c3.7,6.94,7.24,13.96,10.82,20.96
			c3.99,7.82,8.1,15.58,13.02,22.86C252.17,110.43,253.06,107.59,254.19,104.79z"/>
		<path class="st0" d="M618.57,133.28c-1.67,0-3.33,0.02-5,0.01c-5.9-0.01-11.08-1.95-15.64-5.7c-3.29-2.71-5.83-6.06-8.03-9.64
			c-3.35-5.46-6.15-11.21-8.73-17.07c-2.77-6.28-5.61-12.53-8.53-18.73c-0.9-1.91-1.84-3.81-2.82-5.68
			c-2.16,1.33-5.04,1.08-7.47,1.44c-0.15,0.02-0.28,0-0.4-0.04c-1.74,0.38-3.49,0.68-5.28,0.75c2.03,3.93,4.03,7.88,6.04,11.82
			c4.49,8.79,9.05,17.53,14.83,25.56c4.34,6.04,9.31,11.51,15.56,15.66c2.71,1.8,5.47,3.58,8.6,4.6c4.99,1.62,10.14,2.18,15.38,2
			c1.14-0.04,1.97-0.09,2.56-0.24v-4.74C619.28,133.28,618.93,133.28,618.57,133.28z"/>
		<rect x="183.65" y="38.95" class="st0" width="4.88" height="4.88"/>
		<path class="st0" d="M245.6,39.1v4.09c7.84,0.57,8.52,4.32,8.52,11.47v44.42h-0.23l-4.75-7.32c0.12,2.41,0.27,4.82,0.38,7.23
			c0.1,2.19,0.14,4.38,0.08,6.58c-0.05,1.69-0.17,3.44-0.02,5.14l5.22,7.91h4.32v-62.7c0-6.36,0.68-12.15,8.52-12.72V39.1H245.6z"/>
	</g>
	<g>
		<path class="st1" d="M150.74,67c-4.12-0.43-8.24-0.89-12.3-2.61c8.41-2.73,16.35-0.02,24.33,1.08c0.01-0.05,0.02-0.1,0.03-0.15
			c-1.57-1.24-3.43-2.21-5.39-2.69c-1.81-0.2-3.71-0.4-5.81-0.63c3.11-1.5,5.64-1.43,7.47-3.23c-8.61,2.61-17.64,2.66-26.29,4.61
			c-10.62,2.4-21.15,5.52-28.34,14.81c-0.28,0.36-0.6,0.7-0.93,1.02c0.3,0.58,0.56,1.17,0.78,1.76c0.18-0.21,0.38-0.4,0.56-0.59
			c2.05-2.05,3.87-4.48,6.27-5.99c8.45-5.34,17.12-10.08,27.83-7.79c4.98,1.07,10.07,1.71,15.15,2.25c3.09,0.33,6.28,0.87,9.35-0.41
			C159.2,67.75,154.96,67.44,150.74,67z"/>
		<path class="st1" d="M159.22,55.35c-3.85,0.82-7.56,0.79-11.53,0.35c2.66-2.72,6.4-2.86,8.76-5.46
			c-7.39,2.92-14.32,8.06-23.24,4.31c7.29-3.7,15.28-3.93,22.56-6.66c-3.45-0.56-6.55,1.98-10.46,1.21
			c2.64-1.81,4.87-3.34,7.11-4.87c-13.51,5.73-26.61,12.36-40.53,17.17c10.46-11.3,23.87-17.01,38.72-20.1
			c-3.87-0.18-7.42,1.45-11.53,1.27c2.21-2.95,5.92-3.48,7.64-6.52c-10,4.2-17.29,12.85-28.1,15.21c7.08-8.29,15.98-14,26.65-18.64
			c-3.93-0.32-6.33,2.07-9.76,2.23c1.61-2.34,2.91-4.24,4.22-6.14c-5.1,4.44-8.46,10.62-15.81,14.01c3.15-5,5.73-9.1,8.31-13.19
			c0.99-1.36,2.01-2.7,3.07-4.02c0.05-0.06,0.06-0.12,0.06-0.17c-1.38,1.19-2.79,2.36-3.92,3.8c-0.9,1.14-1.69,2.35-2.59,3.47
			c-1.04,1.62-2.03,3.26-2.97,4.93c-3.65,5.27-7.05,10.93-11.71,16.27c0.54-10.05,9.4-14.21,11.72-21.93
			c-2.76,3.95-5.84,7.62-9.1,11.12c-3,3.22-4.87,6.75-5.55,11.25c-0.73,4.8-3.39,8.89-6.74,12.4c-0.06-2.64,0.44-5.08,0.49-7.53
			c0.17-9.02,3.26-16.11,11.63-20.74c2.61-1.44,4.36-3.77,5.78-6.36c0,0,0,0,0.01-0.01c1.06-1.8,2.33-3.47,3.82-4.94
			c0.73-0.72,1.51-1.37,2.3-2.01c0.07-0.05,0.13-0.11,0.19-0.17c0.62-0.45,1.18-0.97,1.52-1.66c-0.47,0.18-0.93,0.39-1.38,0.63
			c-0.19,0.19-0.39,0.37-0.59,0.54c-0.39,0.27-0.79,0.51-1.17,0.76c-0.79,0.52-1.55,1.09-2.25,1.72c0.02-0.04,0.04-0.09,0.06-0.13
			c-0.13,0.14-0.26,0.29-0.39,0.44c-0.07,0.07-0.15,0.13-0.22,0.2c-1.19,1.16-2.21,2.48-3.05,3.91c-0.86,1.14-1.73,2.28-2.67,3.34
			c-2.28,2.56-5.4,3.99-9.14,5.42c1-3.51,2.14-6.29,4.28-8.49c2.21-2.27,4.72-4.24,6.94-6.51c1.97-2.02,4.64-3.4,5.66-6.37
			c-2.47,1.98-4.94,3.96-7.41,5.95c-0.15-0.15-0.3-0.29-0.45-0.44c1.43-2.48,2.87-4.95,4.3-7.43c-1.06,0.66-2.07,1.37-2.82,2.39
			c-2.79,4.18-5.64,8.44-8.8,13.16c-1.77-7.98,0.05-13.93,5.53-18.91c-2.04,1.28-3.76,2.77-5.21,4.47
			c-0.44,0.61-0.86,1.23-1.19,1.92c-0.5,1.06-0.69,2.23-0.99,3.36c0,0.02,0,0.03,0.01,0.05c0,0.01,0,0.01,0,0.02
			c0.01,0.02,0.01,0.04,0.01,0.06c-0.32,5.17,0.72,11.04-1.39,15.36c-3.84,7.89-4.71,16.08-5.6,24.4
			c-0.43,3.98-1.43,7.56-3.37,10.68c0.82,0.64,1.58,1.34,2.27,2.11c5.12-6.47,8.45-8.58,18-13.55c6.5-3.38,13.21-5.35,20.64-4.82
			c5.5,0.4,11.04,0.15,16.52-0.67c0.07-0.01,0.14-0.02,0.22-0.02c0.06-0.02,0.13-0.04,0.2-0.07c0.85-0.33,1.65-0.76,2.42-1.25
			C159.19,55.44,159.21,55.4,159.22,55.35z"/>
		<path class="st1" d="M101.04,47.14c0.11-8.14,1.12-15.99,6.71-22.44c0.21-0.41,0.4-0.82,0.53-1.26c0.09-0.31,0.16-0.65,0.12-0.97
			c-1.11,1.01-2.22,2.03-3.75,3.43c0.27-0.57,0.38-1.23,0.41-1.87c0.05-1.2-0.06-2.41-0.08-3.61c-0.03-1.97,0.02-3.93,0.12-5.89
			c0.1-1.01,0.17-2.03,0.18-3.04c0-0.06-0.02-0.11-0.05-0.15c-0.75,1.27-1.27,2.62-1.62,4.04c-0.23,2.3-0.04,4.68-0.21,7
			c-1.64,5.92-3.29,11.87-4.81,17.38c-1.23-9.07-0.22-18.59,0.73-28.16c-0.12-1-0.34-1.97-0.81-2.88c-0.01,0-0.03,0-0.04,0
			c-0.32,2.42-0.64,4.83-0.96,7.25c-0.21-0.04-0.41-0.07-0.62-0.11C96.26,13.43,95.65,11,95,8.41c-0.1,0.96-0.19,1.95-0.12,2.9
			c0.02,0.32,0.06,0.64,0.09,0.96c2.04,11.35,0.52,23.16,4.12,34.32c0.44,1.37,0.32,3.05,0.03,4.5c-1.11,5.54-3.72,10.45-6.74,15.26
			c-0.94-5.62-2.58-11.32-0.44-16.69c5.68-14.2,1.18-27.85-1.2-41.64c-0.25,1.22-0.41,2.43-0.4,3.66
			c0.93,5.48,1.85,10.95,2.78,16.43c-4.74-4.44-5.45-10.62-8.3-15.79c0.86,6.13,2.21,12.09,5.91,17.22c1.07,1.48,2.2,2.83,2.05,4.8
			c-0.42,5.5-1.94,10.7-4.3,17.01c-7.04-14.49-4.26-29.23-6.3-43.51c-0.23,0.72-0.39,1.49-0.48,2.24c0,0.02-0.01,0.08-0.01,0.09
			c-0.01,0.06-0.01,0.12-0.02,0.18c-0.01,0.12-0.02,0.24-0.03,0.36c-0.02,0.22-0.03,0.44-0.04,0.66
			c0.15,13.71-0.53,27.52,5.24,40.57c1.23,2.78,2.35,5.75,1.39,9.47c-5.37-6.82-7.32-14.36-8.26-22.16
			c-0.95-7.8-0.24-15.69-0.73-23.57c-0.29,0.58-0.57,1.16-0.99,2c-1.7-3.04-1.51-6.42-2.74-9.4c-0.62,3.06,0.13,5.98,0.78,8.89
			c0.96,4.31,1.85,8.59,1.87,13.07c0.05,11.97,1.47,23.61,8.37,33.96c1.28,1.92,1.75,3.85,1.78,5.83c1.39-0.02,2.76,0.13,4.01,0.43
			c0.52,0.13,1.04,0.28,1.55,0.46c0.15-0.24,0.3-0.48,0.47-0.72C99.26,63.28,100.93,55.44,101.04,47.14z"/>
		<path class="st1" d="M138.01,95c5.15,1.18,9.39,3.76,12.93,7.26c3.01,2.98,6.32,4.72,11.41,4.59c-3.22-1.73-5.92-2.96-8.38-4.55
			c-4.84-3.14-8.96-7.37-14.53-9.4c-3.49-1.28-6.96-2.65-10.4-4.06c-0.98-0.4-2.25-0.92-2.14-2.19c0.1-1.15,1.47-1.14,2.32-1.4
			c4.67-1.45,9.02-0.8,12.84,2.37c3.18,2.65,6.18,5.5,8.95,8.59c2.98,3.32,6.32,6.15,10.98,6.68c-1.94-1.47-3.94-2.99-6.19-3.73
			c-2.73-0.89-0.79-3.79-2.5-4.82c-5.4-3.27-9.08-8.67-15.32-11.57c5-2.54,8.51-0.95,11.89,1.9c4.46,3.77,9.02,7.42,13.54,11.11
			c-0.84-1.26-1.76-2.47-2.69-3.68c-0.6-0.52-1.23-1.08-1.92-1.68c2.46,0.03,4.16,0.05,5.86,0.07c0.02-0.06,0.04-0.11,0.06-0.17
			c-1.6-0.78-3.4-1.02-5.08-1.59c-0.28-0.1-0.56-0.21-0.82-0.32c-3.85-1.26-7.19-3.64-10.2-7.23c5.92,0.63,10.9,2.41,16.03,3.74
			c-4.05-2.78-8.82-3.75-13.97-5.33c4.86-1.93,9.63-0.62,13.94-2.14c-17.33-1.51-33.6,7.3-51.72,5.86
			c3.23-3.65,5.72-6.93,10.17-6.24c8.02,1.23,15.97-0.1,23.94-0.31c4.42-0.12,8.84-0.54,13.05-2.19
			c-11.56,1.59-23.06,1.43-34.55-0.68c12.38-2.58,25.1,0.73,37.47-1.99c-10.2-0.12-20.39-0.31-30.5-1.5
			c-6.28-0.74-11.39,1.38-16.03,5.13c-2.13,1.73-4.01,3.79-5.89,5.8c-1.21,1.29-2.55,2.08-4.35,1.94c-0.42-0.03-0.89-0.02-1.31-0.11
			c0.29,1.33,0.4,2.67,0.35,3.99c4.6,0.06,9.21,0.21,13.81,0.39c1.8,0.07,3.46,0.75,5.15,1.44c10.14,4.15,18.34,11.05,26.38,18.23
			c2.68,2.39,5.44,4.75,9.12,5.77C152.48,106.99,145.24,101,138.01,95z"/>
		<path class="st1" d="M155.39,123.63c-5.55-0.86-10.83-1.05-13.58-6.26c4.18,1.46,8.36,2.92,12.54,4.38
			c-15.83-8.12-28.7-19.8-45.32-28.25c19.07-3.75,25.12,12.99,39.11,20.34c-3.83-3.77-8.45-6.69-11.84-10.92
			c0.88-0.59,1.85,0.47,2.75-0.25c-9.92-7-19.67-14.14-32.49-12.24c-0.75,1.5-0.86,3.25-1.7,4.71c20.37,7.22,21.84,35.35,38.7,41.17
			c-10.78-5.8-13.45-18.85-20.38-27.97c1.08,0.23,2.08,0.78,3.16,0.89c-4.1-3.02-7.88-6.28-11.59-9.88
			c24.2,8.54,7.17,19.56,31.52,35.02c-5.64-6.97-13.42-12.59-14.85-22.93c8.58,5.15,10.94,14.63,17.54,20.7l-5.95-9.72
			c4.44,0.78,6.2,4.31,9.21,6.49c-0.05-2.08-2.2-2.59-1.99-4.31C151.63,123.75,153.18,125.28,155.39,123.63z"/>
		<path class="st1" d="M39.88,147.3c4.11-5.18,8.22-10.35,13-16.37c0.75,8.62-4.24,13.76-7.2,19.72c3.66-4.41,7.55-8.76,8.79-14.5
			c1.68-7.81,3.04-15.7,4.22-23.61c0.66-4.41,2.61-7.86,6.23-10.27c3.2-2.13,6.49-4.15,9.78-6.15c-0.05-0.08-0.11-0.17-0.16-0.25
			c-0.71-1.16-1.25-2.36-1.63-3.57c-4.14,1.04-8.36,0.53-12.59-1.43c-2.47-1.15-4.92-1.53-7.61-1.32
			c-11.93,0.9-23.17,4.79-34.58,7.89c-2.87,0.78-5.66,1.88-8,4.02C17.3,98,25.12,97.09,32.7,95.22c18.92-4.67,18.88-4.8,22.73-2.42
			c-8.68,2.67-17.15,4.97-25.91,6.1c-5.65,0.73-14.17,4.61-17.63,8.32c4.94-2.49,9.11-4.93,14.78-5.84
			c-4.3,5.22-9.22,8.64-11.96,13.98c4.58-3.97,8.56-8.56,13.11-12.5c5.13-4.45,12.09-2.6,18.11-4.48c-1.75,2.66-3.57,5.05-5.66,7.19
			c-2.12,2.16-4.62,3.95-6.73,6.12c-2.36,2.42-5.37,3.2-8.43,4.11c-2.67,0.79-5.59,1.09-7.85,2.95c4.16,0.04,7.83-2.63,12.34-1.63
			c-1.65,4.42-6.3,6.08-8.13,10c3.79-3.11,8.1-5.74,10.39-10.24c1.38-2.71,3.41-4.66,5.71-6.42c1.12-0.86,2.49-2.54,3.92-1.18
			c1.46,1.39,0.96,3.33-0.23,4.92c-2.55,3.43-5.01,6.92-8.01,10c-2.65,2.71-5.19,5.54-7.51,9.3c3.22-1,3.59-4.44,6.25-5.14
			c1.14,3.5-1.68,6.27-2.1,10.61c2.33-3.52,3.82-6.34,4.11-9.22c0.43-4.22,2.64-7.08,5.34-9.89c3.13-3.26,5.19-6.91,5.51-11.67
			c0.74-10.79,11.45-16.49,22.17-11.24c-9.44,4.36-11.55,14.63-18.91,20.72c-6.36,5.26-9.96,12.9-14.61,19.7
			c-0.19,0.39-0.36,0.81-0.53,1.2c-0.32,0.77-0.65,1.55-0.87,2.36c0.02,0.02,0.04,0.03,0.06,0.05c2.23-2.82,4.46-5.65,7.39-9.35
			c-0.39,4.89-2.49,8.16-3.36,12.63c2.94-3.35,4.29-6.69,4.71-10.12c1.22-9.94,9.73-14.43,15.02-21.34
			C56.82,127.32,45.16,135.73,39.88,147.3z"/>
		<path class="st1" d="M76.63,75.16c-8.16-2.38-13.57-7.13-15.5-16.3c-1.75-8.34-6.33-15.47-13.89-20.3
			c-1.88-1.2-3.67-2.52-5.46-3.86c-0.3-0.17-0.6-0.34-0.89-0.5c-0.9-0.48-1.76-1.04-2.61-1.6c-1.66-1.09-3.34-2.24-5.25-2.86
			c-0.02,0.01-0.03,0.02-0.05,0.02c3,3.45,6.91,5.5,10.35,8.14c5.53,4.23,11.95,7.66,14.06,15.08c1.4,4.93,3.83,9.64,3.77,16.19
			C47.88,58.37,42.26,42.65,30.61,32.03c0.77,3.2,3.67,4.96,5.54,8.47c-3.82-1.36-6.38-4.01-10.12-3.25
			c9.17,3.59,15.56,9.94,20.15,19.2c-5.12-1.66-8.83-4.47-12.12-7.66c-7.54-7.33-7.44-7.43-11.55-7.91
			c8.62,4.62,12.19,13.88,20.98,17.21c-8.87-1.75-16.48-5.74-23.31-11.39c1.51,3.28,4.16,5.1,7.05,6.76
			c6.5,3.75,14.02,5.23,20.47,8.84c9.01,5.05,17.42,11.16,26.65,15.88C75,77.11,75.76,76.1,76.63,75.16z"/>
		<path class="st1" d="M79.81,72.44c0.48-0.32,0.99-0.61,1.52-0.86c-0.1-0.27-0.2-0.54-0.29-0.81c-5.53-15.84-5.91-32.46-7.34-48.92
			c-0.36-4.15-0.75-8.25-2.73-12.05c1.35,7.17,1.93,14.34,0.83,21.72c-2.55-6.57-5.11-13.15-7.66-19.72
			c2.03,12.47,10.55,23.04,9.5,36.59c-9.75-9.89-13.38-22.18-15.23-35.3c-0.64,5.01,1.77,9.68,0.87,14.73
			c-4.51-2.28-7.65-5.82-11.11-9.07c5.99,7.81,13.57,14.1,18.77,22.65c5.23,8.6,10.54,16.88,10.52,27.5
			c-7.53-14.07-17.68-26.33-26.39-39.57c-1.11-1.35-1.96-2.87-2.92-4.32c-0.75-1.14-1.64-2.15-2.54-3.16
			c-0.02-0.01-0.04-0.03-0.06-0.04c-0.01-0.01-0.04-0.03-0.04-0.03c-0.03-0.02-0.06-0.04-0.09-0.06c-0.05-0.03-0.1-0.07-0.15-0.1
			c-0.17-0.11-0.32-0.23-0.48-0.35l5.78,9.45c-4.62-1.29-6.45-5.3-10.32-7.14c0.84,2.27,3.14,2.99,3.64,5.11
			c-2.94,0.36-5.24-1.94-8.57-1.11c2.79,1.69,4.98,3.44,7.59,3.49c5.81,0.12,9.38,3.68,12.61,7.7
			c8.89,11.11,15.91,23.33,21.12,36.39C77.57,74.15,78.63,73.23,79.81,72.44z"/>
		<path class="st1" d="M72.92,81.22c-0.04-0.02-0.08-0.04-0.12-0.06c-5.65-3.26-11.91-5.07-17.74-7.88
			c-3.47-1.68-7.06-3.15-10.17-5.51c-6.02-4.55-12.39-8.54-19.04-12.06c-1.42-0.62-2.92-1.06-4.39-1.53
			c-1.52-0.48-3.18-0.9-4.52-1.81c1.3,2.06,4.05,2.29,5.89,4.2c-2.93,0.76-5.76-0.78-8.86,0.89C21,59,28.35,57.02,33.46,62.78
			c-7.21,2.92-14.04,1.08-20.83-1.64c6.38,4.24,13.28,5.77,20.77,5.05c3-0.29,6.19-0.51,8.69,1.74c4.74,4.27,10.58,6.38,16.34,8.71
			c2.75,1.11,5.57,2.11,7.9,4.26c-4.68-0.04-9.44,2.17-13.87-1.05c-4.59-3.33-9.82-5.04-15.39-5.56c-6.9-0.64-13.67-1.84-20.28-3.96
			c-1.2-0.39-2.46-1.03-4.61-0.35c3.55,1.47,6.45,2.67,10,4.15c-4.4,2.32-8.51,1.62-13.17,2.91c7.97,1.82,14.5-2.14,21.34-1.36
			c6.76,0.77,13.31,2.34,19.43,5.66c-8.08,1.36-15.67,5.16-24.24,2.2c-5.18-1.79-10.88-1.87-16.47-0.69
			c6.75-0.04,13.12,1.33,19.63,4.01c-4.41,4.31-9.5,2.58-14.22,3.19c1.11,1.52,3.26,0.62,3.81,2.37c-1.36,1.81-3.87,1.32-5.89,3.2
			c6.15-0.31,10.8-3.04,15.43-5.6c5.16-2.86,10.37-4.89,16.44-4.8c5.92,0.09,11.88-0.13,17.76-0.82c3.44-0.4,6.77-0.21,10.06,0.31
			C72.23,83.54,72.51,82.36,72.92,81.22z"/>
		<path class="st1" d="M123.79,126.95c-4.72-8.93-9.69-17.82-17.73-24.01c-0.69-0.41-1.37-0.87-2.1-1.19
			c-0.42-0.18-0.84-0.3-1.25-0.37c-0.04-0.02-0.09-0.03-0.15-0.03c-0.01,0-0.01,0-0.02,0c-0.06-0.01-0.11-0.01-0.17-0.01
			c-0.66-0.15-1.35-0.18-2.01,0.03c-0.46,0.15-0.9,0.39-1.33,0.6c-0.47,0.23-0.93,0.47-1.4,0.7c-0.01,0.01-0.02,0.01-0.02,0.02
			c-0.21,0.11-0.42,0.2-0.63,0.31c-0.78,0.33-1.57,0.63-2.37,0.91c-1.32,0.45-2.69,0.77-4.08,0.73c0.98-0.13,1.94-0.37,2.84-0.89
			c0.51-0.29,0.89-0.75,1.47-0.99c1.63-0.68,3.14-1.6,4.38-2.91c-2.15,1.61-4.52,2.7-7.14,3.26c-2.64,0.56-5.27,0.67-7.9-0.05
			c1.48,0.21,2.97,0.34,4.47,0.33c1.23-0.01,3.89-0.64,4.41-1.07c-2.34,0.69-4.63,0.96-6.99,0.63c-5.14-0.72-9.11-3.26-11.71-7.72
			c-3.8-6.49-2.68-14.6,2.7-19.84c4.08-3.97,8.97-5.54,14.6-4.36c2.64,0.55,4.99,1.7,7.1,3.46c2.85,2.39,4.8,5.3,5.71,8.89
			c0.49,1.93,0.67,3.9,0.47,5.9c-0.08,0.83-0.15,1.67-0.23,2.6c0.35-0.37,0.31-0.83,0.7-1.16c-0.07,0.42-0.12,0.76-0.17,1.1
			l0.08,0.03c0.24-0.66,0.49-1.33,0.73-1.99c-0.22,2.45-1.05,4.71-2.01,6.94c0.06-0.06,0.11-0.11,0.16-0.17
			c0.77-1,1.22-2.32,1.87-3.39c0.44-1.03,0.5-2.15,0.85-3.19c0.64-1.89,0.58-3.85,0.41-5.79c-0.12-1.31-0.71-2.52-1.09-3.78
			c-0.72-2.39-2.04-4.44-3.63-6.24c-1.93-2.19-4.3-3.85-7.06-5.03c-4.1-1.75-8.24-1.95-12.5-0.85c-3.74,0.97-6.8,3-9.39,5.83
			c-1.89,2.07-3.18,4.48-4.11,7.1c-0.6,1.68-0.87,3.4-0.93,5.21c-0.05,1.62,0.16,3.2,0.46,4.74c0.38,2,1.14,3.91,2.14,5.73
			c1.19,2.19,2.87,3.94,4.73,5.46c0.73,0.59,1.51,1.12,2.32,1.59c-2.27,3.42-5.37,6.14-9.61,7.89c-2.85,1.18-4.1,3.43-5.1,6.45
			c-2.57,7.71-4.81,15.54-7.91,23.09c-1.77,4.31-5.26,7.46-7.74,12.31c3.09-1.69,3.63-4.67,6.11-5.85c0.53,2.56-1.79,4.54-1.22,7.34
			c3.77-5.05,3.41-10.97,5.81-15.93c2.89-5.97,5.64-11.93,6.79-18.58c0.72-4.16,3.2-7.35,8.83-8.87c-3.8,3.89-4.33,7.85-5.01,11.81
			c-0.73,4.21-1.55,8.42-3.52,12.3c-2.88,5.67-3.65,11.74-4.03,17.89c0.23,0.75,0.15,1.62,0.27,2.33c0.14,0.81,0.33,1.61,0.51,2.41
			c1.84-8.59,2.56-17.39,6.44-25.66c1.81,1.67,1.73,3.36,1.53,4.97c-0.35,2.88-0.94,5.72-1.26,8.6c-0.56,4.94-1.52,9.87-0.76,14.89
			c0.89-2.33,1.37-4.71,1.89-7.09c0.2-0.94,0.36-2.03,1.6-2.1c1.32-0.08,1.92,0.88,2.36,1.96c0.59,1.48,0.07,3.3,1.67,4.93
			c-0.21-3.63,0.25-7-3.1-9.13c-0.92-0.58-1.1-1.58-1.19-2.53c-0.55-6.24-0.23-12.51-0.76-18.8c-0.62-7.29,1.95-14.75,7.72-20.28
			c1.01-0.97,1.69-3.08,3.48-2.31c1.69,0.73,0.99,2.68,0.9,4.12c-0.67,10.48-2.74,20.77-4.14,31.15
			c-0.98,7.23-0.94,14.38,1.34,21.43c-1.86-10.57,0.14-20.75,2.6-31.05c5.05,4.06,5.9,8.44,2.74,13.22
			c-2.97,4.5-2.87,13.06,0.3,17.67c0.38-4.47-3.11-9.06,0.86-13.74c0.87,5.3,1.99,9.99,4.71,15.29c0.05-4.33-1.57-7.14-2.32-10.16
			c-0.78-3.13-1.53-6.29,0.1-9.28c1.8-3.3,3.05-6.78,4.26-10.31c0.31-0.91,0.03-2.58,1.62-2.38c1.26,0.16,1.36,1.56,1.59,2.64
			c0.75,3.5,1.5,7.01,2.24,10.52c-0.01,0.08-0.03,0.16-0.04,0.24c0,0.02,0.01,0.04,0.01,0.06c-0.04,0.72-0.24,1.4-0.36,2.1
			c-0.13,0.74-0.17,1.51-0.23,2.27c-0.06,0.77-0.08,1.54-0.07,2.31c0.01,0.75,0.2,1.48,0.19,2.23c0,0.04-0.01,0.07-0.02,0.1
			c0.06,1.21,0.38,2.39,0.76,3.54c0.3,0.93,0.66,1.88,1.26,2.67c0-0.02,0-0.03,0-0.05c-0.3-1.46-0.54-2.92-0.72-4.4
			c0-0.33-0.01-0.66-0.03-1c-0.07-1.23-0.03-2.46,0.06-3.68c0.11-1.43,0.27-2.86,0.44-4.29c2.44,0.55,2.48,0.7,3.56,2.92
			c1.44,2.98,1.82,6.44,4.17,9.04c-1.36-4.7-1.76-9.76-4.63-13.86c-3.5-5-4.68-10.85-6.58-16.44c-0.82-2.43-0.89-4.95,1.31-6.88
			c1.65-1.45,3.79-1.66,4.3,0.59c1.29,5.65,4.34,10.69,4.91,16.62c0.64,6.62,2.11,13.17,3.23,19.74
			c-0.16-8.87-0.75-17.68-2.23-26.33c-0.7-4.1-1.99-8.91-5.16-11.54c-1.74-1.44-2.67-2.99-3.17-4.61c-0.06-0.09-0.11-0.18-0.16-0.28
			c-0.7-1.44-1.07-3.01-1.31-4.58c-0.24-1.54-0.33-3.1-0.34-4.65c0.01-0.1,0.01-0.21,0.02-0.31c0,0,0,0,0,0c0.02,0,0.03,0,0.04,0
			c0.04,0.01,0.08,0.03,0.11,0.04c0.03,0.02,0.06,0.04,0.09,0.06c0.02,0.01,0.02,0.01,0,0c0.01,0.01,0.03,0.02,0.04,0.03
			c0.25,0.21,0.46,0.47,0.69,0.71l0.03,0.03c0.27,0.4,0.5,0.84,0.73,1.27c5.2,6.99,9.87,14.27,14.12,21.83
			c2.81,5,2.88,9.77,0.16,14.93c-2.22,4.21-2.39,8.83-0.5,13.36c0.36-3.46-0.51-7.13,2.15-10.44c1.5,2.61,1.89,5.43,4.24,7.32
			c-2.83-6.12-2.24-12.3-1.02-18.78c3.37,1.31,3.08,4.06,2.68,6.34c-0.72,4.07,1.51,6.6,4.09,9.21c-0.91-3.86-4.27-7.43-1.45-11.93
			c2.38,2.98,4.59,5.74,6.8,8.5c-2.03-5.78-5.98-9.94-10.5-13.58c-2.12-1.71-3.7-3.73-4.44-6.32c-0.75-2.59-2.17-4.76-3.84-6.81
			c-3.42-4.2-6.18-8.82-8.77-13.55c-0.66-1.2-2.31-2.8-0.69-3.92c1.32-0.91,2.71,0.69,3.85,1.68c1.94,1.69,3.62,3.59,5.21,5.58
			c1.16,1.55,2.16,3.21,3.03,4.93c0.02,0.04,0.03,0.08,0.05,0.12c0.59,1.42,1.18,2.85,1.77,4.27c0.61,1.48,1.23,2.96,1.84,4.44
			c0.19,0.56,0.4,1.11,0.62,1.66c0.43,1.01,0.89,2.01,1.49,2.95c0.14,0.23,0.3,0.45,0.46,0.68c0.06,0.07,0.13,0.14,0.19,0.21
			c0.18,0.18,0.37,0.35,0.56,0.52c0.34,0.3,0.69,0.59,1.02,0.9c0.06,0.06,0.13,0.12,0.2,0.18c0.03,0.03,0.07,0.06,0.1,0.09
			c0.01,0.01,0.04,0.03,0.06,0.04c0.09,0.06,0.29,0.2,0.37,0.24c0.01,0,0.02,0,0.04,0.01c0,0,0.01,0,0.02,0c0-0.01,0-0.01,0.01-0.02
			c0.02-0.05,0.04-0.08,0.07-0.12c-2.11-3.94-3.73-8.14-5.32-12.32c5.01,7.28,8.51,15.54,14.34,22.29c0.78,0.91,0.73,0.95,2.86,1.67
			C131.22,139.09,127.16,133.32,123.79,126.95z M95.09,114.87c0,0.67-0.03,1.35-0.09,2.02c-0.05,0.58-0.12,1.15-0.21,1.73
			c-0.09,0.68-0.2,1.36-0.24,2.05c0,0.03-0.02,0.06-0.04,0.07c-0.03,0.22-0.08,0.45-0.14,0.66c-0.1,0.4-0.22,0.79-0.33,1.18
			c-0.11,0.4-0.19,0.8-0.28,1.2c-0.09,0.4-0.19,0.79-0.29,1.19c-0.84,4.27-2.25,8.56-4.28,12.91c-4.17-6.13-6.08-11.89-5.1-18.81
			c0.41-2.93,0.63-5.9,0.78-8.87c0-0.17,0.02-0.34,0.02-0.51c-0.01-0.38,0.01-0.77,0.03-1.15c0.01-0.36,0.02-0.71-0.02-1.06
			c-0.03-0.29-0.06-0.57-0.04-0.86c-0.02-0.21-0.02-0.42,0.07-0.58c0.03-0.06,0.08-0.1,0.14-0.14c0,0,0-0.01,0-0.01l0.02,0
			c0.11-0.06,0.23-0.08,0.36-0.07c0.1,0.01,0.19,0.03,0.28,0.04c0.02,0,0.15,0.02,0.05,0.01c0.04,0,0.08,0.01,0.13,0.01
			c0.54,0.04,1.08,0.03,1.62,0.06c0.01,0,0.01,0,0.01,0c1.82-0.2,3.66-0.23,5.46-0.51c-1.18,1.33-1.82,2.88-2.2,4.53
			c-0.47,1.2-0.8,2.47-1.01,3.73c-0.61,3.56-0.76,7.23-1.06,10.83c-0.01,0.07,0.01,0.14,0.03,0.2c0.96-1.42,1.72-3.02,2.17-4.65
			c0.21-0.75,0.42-1.51,0.57-2.28c0.08-0.84,0.16-1.68,0.25-2.52c0.18-1.69,0.47-3.36,1.1-4.95c0.11-0.28,0.22-0.55,0.33-0.82
			c0.11-0.39,0.25-0.77,0.38-1.15c0.09-0.28,0.17-0.56,0.25-0.83c0.11-0.25,0.22-0.5,0.32-0.75c0.04-0.1,0.08-0.21,0.14-0.3
			c0.01-0.01,0.01-0.02,0.02-0.03c0,0,0,0,0,0c0.01,0.01,0.02,0.01,0.02,0.01c-0.05-0.03,0,0,0.01,0.02
			c0.02,0.02-0.01-0.03,0.01,0.02c0,0,0.02,0.05,0.03,0.06c0.01,0.02,0.01,0.04,0.02,0.06c0.01,0.02,0.01,0.04,0.01,0.05
			c0.04,0.54,0.23,1.05,0.33,1.58c0.11,0.55,0.15,1.12,0.22,1.67c0.07,0.58,0.16,1.16,0.18,1.74c0.04,1.06-0.05,2.11-0.07,3.17
			C95.07,114.84,95.09,114.85,95.09,114.87z"/>
	</g>
</g>
</svg>
